<?xml version="1.0" encoding="utf-8"?>
<!-- Generator: Adobe Illustrator 25.2.1, SVG Export Plug-In . SVG Version: 6.00 Build 0)  -->
<svg version="1.1" xmlns="http://www.w3.org/2000/svg" xmlns:xlink="http://www.w3.org/1999/xlink" x="0px" y="0px"
	 viewBox="0 0 2048 2048" style="enable-background:new 0 0 2048 2048;" xml:space="preserve">
<style type="text/css">
	.st0{fill:#2FBFD8;stroke:#000000;stroke-width:30;stroke-linecap:round;stroke-linejoin:round;}
	.st1{fill:#D13428;stroke:#000000;stroke-width:30;stroke-linecap:round;stroke-linejoin:round;}
</style>
<g id="Layer_2">
</g>
<g id="Layer_1">
	<g>
		<path class="st0" d="M1380.8,908l357.4,115.5L1380.8,1140l-356.3-115.5L1380.8,908z M1244.5,1328l357.4,115.5l-221-303.5
			l-356.3-115.5L1244.5,1328z M803.5,1328l221-303.5L667.2,1140l-221,303.5L803.5,1328z M667.2,908l357.4,116.6L667.2,1140
			l-357.4-115.5L667.2,908z M1380.8,533l221-303.5L1244.5,345l-219.9,303.5L1380.8,533z M1380.8,533v375l221-303.5v-375L1380.8,533z
			 M667.2,533l357.4,115.5L803.5,345L446.2,229.5L667.2,533z M667.2,533v375l-221-303.5v-375L667.2,533z M1024.5,1631.5v375
			l-221-303.5v-375L1024.5,1631.5z M1024.5,1631.5v375l219.9-303.5v-375L1024.5,1631.5z"/>
		<path class="st1" d="M1380.8,908l357.4,115.5L1958.1,720l-356.3-115.5L1380.8,908z M1244.5,1328v375l357.4,115.5v-375L1244.5,1328
			z M803.5,1328v375l-357.4,115.5v-375L803.5,1328z M667.2,908l-221-303.5L89.9,720l219.9,304.6L667.2,908z M1024.5,648.5
			L1244.5,345L1024.5,41.5L803.5,345L1024.5,648.5z M1380.8,533v375l-356.3,116.6V648.5L1380.8,533z M667.2,533v375l357.4,116.6
			V648.5L667.2,533z M89.9,1328l356.3,115.5l221-303.5l-357.4-115.5L89.9,1328z M1024.5,1631.5l219.9-303.5l-219.9-303.5l-221,303.5
			L1024.5,1631.5z M1958.1,1328l-219.9-304.6L1380.8,1140l221,303.5L1958.1,1328z"/>
	</g>
</g>
</svg>
