<?xml version="1.0" encoding="UTF-8" standalone="yes"?>
<svg xmlns="http://www.w3.org/2000/svg" xmlns:xlink="http://www.w3.org/1999/xlink" width="48px" height="48px" viewBox="0 0 48 48" version="1.1">
  <g id="surface1">
    <path style=" stroke:none;fill-rule:nonzero;fill:rgb(0%,0%,0%);fill-opacity:1;" d="M 26 12 L 26 28 L 29.761719 28 L 25.761719 36 L 37.238281 36 L 42 26.480469 L 42 12 M 30 16 L 38 16 L 38 25.519531 L 34.761719 32 L 32.238281 32 L 36.238281 24 L 30 24 M 6 12 L 6 28 L 9.761719 28 L 5.761719 36 L 17.238281 36 L 22 26.480469 L 22 12 M 10 16 L 18 16 L 18 25.519531 L 14.761719 32 L 12.238281 32 L 16.238281 24 L 10 24 Z M 10 16 "/>
  </g>
</svg>