<?xml version="1.0" encoding="UTF-8" standalone="yes"?>
<svg xmlns="http://www.w3.org/2000/svg" xmlns:xlink="http://www.w3.org/1999/xlink" width="48px" height="48px" viewBox="0 0 48 48" version="1.1">
  <g id="surface1">
    <path style=" stroke:none;fill-rule:nonzero;fill:rgb(0%,0%,0%);fill-opacity:1;" d="M 43.398438 26.699219 L 41.398438 28.699219 L 37.300781 24.699219 L 39.300781 22.699219 C 39.699219 22.28125 40.378906 22.261719 40.839844 22.699219 L 43.398438 25.261719 C 43.78125 25.660156 43.78125 26.300781 43.398438 26.699219 M 24 37.878906 L 24 42 L 28.121094 42 L 40.238281 29.761719 L 36.140625 25.761719 L 24 37.878906 M 10 38 L 20 38 L 20 42 L 10 42 C 7.800781 42 6 40.21875 6 38 L 6 10 C 6 7.800781 7.800781 6 10 6 L 12 6 L 12 2 L 16 2 L 16 6 L 32 6 L 32 2 L 36 2 L 36 6 L 38 6 C 40.21875 6 42 7.800781 42 10 L 42 18 L 10 18 L 10 38 M 10 10 L 10 14 L 38 14 L 38 10 Z M 10 10 "/>
  </g>
</svg>