<?xml version="1.0" encoding="UTF-8" standalone="yes"?>
<svg xmlns="http://www.w3.org/2000/svg" xmlns:xlink="http://www.w3.org/1999/xlink" width="48px" height="48px" viewBox="0 0 48 48" version="1.1">
  <g id="surface1">
    <path style=" stroke:none;fill-rule:nonzero;fill:rgb(0%,0%,0%);fill-opacity:1;" d="M 24 40 C 16.269531 40 10 33.730469 10 26 C 10 18.269531 16.269531 12 24 12 C 31.730469 12 38 18.269531 38 26 C 38 33.730469 31.730469 40 24 40 M 24 8 C 14.058594 8 6 16.058594 6 26 C 6 35.941406 14.058594 44 24 44 C 33.941406 44 42 35.941406 42 26 C 42 16.058594 33.941406 8 24 8 M 25 16 L 22 16 L 22 28 L 31.5 33.699219 L 33 31.238281 L 25 26.5 L 25 16 M 15.761719 6.78125 L 13.199219 3.71875 L 4 11.421875 L 6.578125 14.480469 L 15.761719 6.78125 M 44 11.441406 L 34.800781 3.71875 L 32.21875 6.78125 L 41.421875 14.5 Z M 44 11.441406 "/>
  </g>
</svg>